<?xml version="1.0" encoding="UTF-8" standalone="no"?>
<!-- Created with Inkscape (http://www.inkscape.org/) -->

<svg
   width="100mm"
   height="100mm"
   viewBox="0 0 100 100"
   version="1.1"
   id="svg185"
   inkscape:version="1.2.2 (b0a84865, 2022-12-01)"
   sodipodi:docname="midicaptain-switchmask.svg"
   xmlns:inkscape="http://www.inkscape.org/namespaces/inkscape"
   xmlns:sodipodi="http://sodipodi.sourceforge.net/DTD/sodipodi-0.dtd"
   xmlns="http://www.w3.org/2000/svg"
   xmlns:svg="http://www.w3.org/2000/svg">
  <sodipodi:namedview
     id="namedview187"
     pagecolor="#ffffff"
     bordercolor="#000000"
     borderopacity="0.25"
     inkscape:showpageshadow="2"
     inkscape:pageopacity="0"
     inkscape:pagecheckerboard="true"
     inkscape:deskcolor="#d1d1d1"
     inkscape:document-units="mm"
     showgrid="false"
     inkscape:zoom="1.2875855"
     inkscape:cx="159.21272"
     inkscape:cy="232.99423"
     inkscape:window-width="1318"
     inkscape:window-height="906"
     inkscape:window-x="2011"
     inkscape:window-y="30"
     inkscape:window-maximized="0"
     inkscape:current-layer="layer1" />
  <defs
     id="defs182" />
  <g
     inkscape:label="Ebene 1"
     inkscape:groupmode="layer"
     id="layer1">
    <path
       style="fill:#000000;stroke-width:1.88785;-inkscape-stroke:none;stop-color:#000000;stroke:none;stroke-opacity:1;fill-opacity:1"
       d="m 22.089091,78.61794 -7.066235,7.066236 A 50,50 0 0 0 50.000049,100.0001 50,50 0 0 0 84.998946,85.70588 l -7.087939,-7.08794 a 40,40 0 0 1 -0.70435,0.70435 40,40 0 0 1 -2.267045,1.950785 40,40 0 0 1 -2.406572,1.776636 40,40 0 0 1 -2.533178,1.591117 40,40 0 0 1 -2.644283,1.397848 40,40 0 0 1 -2.741952,1.196309 40,40 0 0 1 -2.8236,0.988054 40,40 0 0 1 -2.889229,0.774113 40,40 0 0 1 -2.939356,0.556038 40,40 0 0 1 -2.972428,0.334863 40,40 0 0 1 -2.988965,0.112138 A 40,40 0 0 1 47.010567,89.888053 40,40 0 0 1 44.038139,89.55319 40,40 0 0 1 41.0993,88.997152 40,40 0 0 1 38.209554,88.223039 40,40 0 0 1 35.386471,87.234985 40,40 0 0 1 32.644519,86.038676 40,40 0 0 1 30.000236,84.640828 40,40 0 0 1 27.467057,83.049711 40,40 0 0 1 25.060486,81.273075 40,40 0 0 1 22.792924,79.32229 40,40 0 0 1 22.089091,78.61794 Z"
       id="path14982" />
    <path
       style="fill:#000000;stroke-width:1.88785;-inkscape-stroke:none;stop-color:#000000;stroke:none;stroke-opacity:1;fill-opacity:1"
       d="M 36.585364,1.8670695 A 50,50 0 0 0 0,50.000049 50,50 0 0 0 1.6081706,62.448901 l 9.6526404,-2.586405 a 40,40 0 0 1 -0.257865,-0.961698 40,40 0 0 1 -0.556038,-2.939356 40,40 0 0 1 -0.334864,-2.972428 40,40 0 0 1 -0.1121376,-2.988965 40,40 0 0 1 0.1121376,-2.989482 40,40 0 0 1 0.334864,-2.972428 40,40 0 0 1 0.556038,-2.938839 40,40 0 0 1 0.774113,-2.889746 40,40 0 0 1 0.988053,-2.823083 40,40 0 0 1 1.19631,-2.741952 40,40 0 0 1 1.39733,-2.644283 40,40 0 0 1 1.591635,-2.533179 40,40 0 0 1 1.776119,-2.406571 40,40 0 0 1 1.951302,-2.267562 40,40 0 0 1 2.115116,-2.115116 40,40 0 0 1 2.267562,-1.951302 40,40 0 0 1 2.406571,-1.776119 40,40 0 0 1 2.533179,-1.591635 40,40 0 0 1 2.644283,-1.39733 40,40 0 0 1 2.741952,-1.19631 40,40 0 0 1 2.823083,-0.988053 40,40 0 0 1 0.961698,-0.257865 z"
       id="path14976" />
    <path
       style="fill:#000000;stroke-width:1.88785;-inkscape-stroke:none;stop-color:#000000;stroke:none;stroke-opacity:1;fill-opacity:1"
       d="m 63.422485,1.839681 -2.588472,9.658842 a 40,40 0 0 1 0.345198,0.0956 40,40 0 0 1 0.98547,0.30024 40,40 0 0 1 0.977201,0.326079 40,40 0 0 1 0.968417,0.350883 40,40 0 0 1 0.958597,0.375687 40,40 0 0 1 0.949297,0.400493 40,40 0 0 1 0.938444,0.424263 40,40 0 0 1 0.927075,0.448552 40,40 0 0 1 0.915189,0.472322 40,40 0 0 1 0.902788,0.496094 40,40 0 0 1 0.889868,0.518831 40,40 0 0 1 0.876432,0.541569 40,40 0 0 1 0.861963,0.56379 40,40 0 0 1 0.846977,0.586011 40,40 0 0 1 0.831474,0.607715 40,40 0 0 1 0.81597,0.628385 40,40 0 0 1 0.799435,0.649573 40,40 0 0 1 0.782381,0.670243 40,40 0 0 1 0.764811,0.689881 40,40 0 0 1 0.746725,0.709 40,40 0 0 1 0.728121,0.728638 40,40 0 0 1 0.709517,0.746724 40,40 0 0 1 0.68988,0.764812 40,40 0 0 1 0.669727,0.782381 40,40 0 0 1 0.649573,0.799434 40,40 0 0 1 0.628902,0.815454 40,40 0 0 1 0.607715,0.831991 40,40 0 0 1 0.58601,0.846977 40,40 0 0 1 0.56379,0.861963 40,40 0 0 1 0.541569,0.876432 40,40 0 0 1 0.518832,0.889351 40,40 0 0 1 0.495577,0.902788 40,40 0 0 1 0.472322,0.915706 40,40 0 0 1 0.449068,0.927075 40,40 0 0 1 0.424264,0.938444 40,40 0 0 1 0.400492,0.948779 40,40 0 0 1 0.375688,0.959115 40,40 0 0 1 0.350883,0.968416 40,40 0 0 1 0.325561,0.977202 40,40 0 0 1 0.300757,0.984952 40,40 0 0 1 0.274919,0.992705 40,40 0 0 1 0.249597,0.999422 40,40 0 0 1 0.223759,1.005623 40,40 0 0 1 0.197921,1.010791 40,40 0 0 1 0.171566,1.015442 40,40 0 0 1 0.14521,1.019576 40,40 0 0 1 0.118856,1.023194 40,40 0 0 1 0.09302,1.025777 40,40 0 0 1 0.06615,1.027844 40,40 0 0 1 0.03979,1.029395 40,40 0 0 1 0.01344,1.029911 40,40 0 0 1 -0.112138,2.988965 40,40 0 0 1 -0.334863,2.972428 40,40 0 0 1 -0.556038,2.939356 40,40 0 0 1 -0.257866,0.961698 l 9.68158,2.594157 A 50,50 0 0 0 100.0001,50.000049 50,50 0 0 0 63.422485,1.839681 Z"
       id="path14974" />
  </g>
</svg>
